<svg xmlns="http://www.w3.org/2000/svg" viewBox="0 0 953.91 116.44"><defs><style>.cls-1{fill:#fff;}</style></defs><title>LogoblancoRecurso 3</title><g id="Capa_2" data-name="Capa 2"><g id="_1" data-name="1"><path class="cls-1" d="M163.05,112.18c-.16,0-.16-.16-.16-.32l-.16-.16-43.68-104a4,4,0,0,1,2.09-5.16,3.83,3.83,0,0,1,5.16,1.93l40.29,96.07L207.05,4.51a3.61,3.61,0,0,1,5-1.93,4,4,0,0,1,2.09,5.16L170.46,110.89a3.75,3.75,0,0,1-2.25,3.22H168a4.42,4.42,0,0,1-1.45.33,4.06,4.06,0,0,1-1.45-.16c-.16,0-.16-.17-.16-.17A2.89,2.89,0,0,1,163.05,112.18Z"/><path class="cls-1" d="M318.9,0c30.14,0,53.84,25.63,54,57.22-.16,31.59-23.86,57.22-54,57.22-30.46,0-54.32-25.63-54.48-57.22C264.58,25.63,288.44,0,318.9,0Zm0,106.54c24.82,0,45.78-21.76,45.94-49.32-.16-27.89-21.12-49.16-45.94-49.16-25.63,0-46.58,21.27-46.58,49.16C272.32,84.78,293.27,106.54,318.9,106.54Z"/><path class="cls-1" d="M899.92,0c30.14,0,53.83,25.63,54,57.22-.16,31.59-23.85,57.22-54,57.22-30.46,0-54.32-25.63-54.48-57.22C845.6,25.63,869.46,0,899.92,0Zm0,106.54c24.82,0,45.77-21.76,45.94-49.32-.17-27.89-21.12-49.16-45.94-49.16-25.63,0-46.58,21.27-46.58,49.16C853.34,84.78,874.29,106.54,899.92,106.54Z"/><path class="cls-1" d="M86.33,108.12,47.17,3.51A4,4,0,0,0,43.3,1.09a4.31,4.31,0,0,0-3.87,2.42L.26,108.12a4.14,4.14,0,0,0,2.26,5.16c.48,0,1.13.16,1.45.16a4,4,0,0,0,3.71-2.58l35.78-95.1,35.62,95.1a4.14,4.14,0,0,0,3.71,2.58c.48,0,.8-.16,1.45-.16A4,4,0,0,0,86.33,108.12Z"/><path class="cls-1" d="M653.81,109.12,614.65,4.51a4,4,0,0,0-3.87-2.42,4.32,4.32,0,0,0-3.87,2.42L567.75,109.12a4.12,4.12,0,0,0,2.25,5.16c.49,0,1.13.16,1.45.16a4,4,0,0,0,3.71-2.58l35.78-95.1,35.62,95.1a4.15,4.15,0,0,0,3.71,2.58c.48,0,.8-.16,1.45-.16A4,4,0,0,0,653.81,109.12Z"/><path class="cls-1" d="M731.76,1.67c-2.9-.08-5.8-.06-8.73-.07l-7.76,0a16.3,16.3,0,0,0-3.42.22,5.58,5.58,0,0,0-3,1.55,3.86,3.86,0,0,0-.27,4.92A4.46,4.46,0,0,0,711,9.67a12.56,12.56,0,0,0,2.87.24c8.45.05,17-1.1,25.44.05A48.79,48.79,0,0,1,772.2,29.62,48.57,48.57,0,0,1,781.36,55c1.82,28-21.06,51.58-49.15,51.58q-9.93,0-19.86-.05a6.35,6.35,0,0,0-2.74.39c-2.38,1.09-2.28,4.4-.72,6.14,1.77,2,4.65,1.42,7,1.42h17a56.36,56.36,0,0,0,56.33-53.18,55.57,55.57,0,0,0-2.5-19.76,56.32,56.32,0,0,0-8.93-17.12,58.09,58.09,0,0,0-32-21A64,64,0,0,0,731.76,1.67Z"/><path class="cls-1" d="M438.49,6a4,4,0,1,0-7.9,0V110.57a3.93,3.93,0,0,0,3.87,3.87,4,4,0,0,0,4-3.87Z"/><path class="cls-1" d="M509.11,110,465,53.9l43.2-43.2a3.9,3.9,0,0,0,0-5.64,4,4,0,0,0-5.48,0L460.21,47.51c-4.53,5.24-4.53,8.24.62,14L503,115a3.26,3.26,0,0,0,2.9,1.45,3.77,3.77,0,0,0,2.58-.81A4.25,4.25,0,0,0,509.11,110Z"/></g></g></svg>